<svg width="18" height="18" viewBox="0 0 18 18" fill="none" xmlns="http://www.w3.org/2000/svg">
    <g clip-path="url(#clip0_17_410)">
        <path
            d="M16.65 0H1.35C0.6 0 0 0.60251 0 1.28033V16.7197C0 17.3975 0.6 18 1.35 18H16.65C17.4 18 18 17.3975 18 16.7197V1.28033C18 0.60251 17.4 0 16.65 0ZM5.325 15.364H2.7V6.77824H5.325V15.364ZM4.05 5.57322C3.225 5.57322 2.475 4.8954 2.475 3.99163C2.475 3.08787 3.15 2.41004 4.05 2.41004C4.875 2.41004 5.625 3.08787 5.625 3.99163C5.625 4.8954 4.875 5.57322 4.05 5.57322ZM15.375 15.2887H12.75V11.0711C12.75 10.0921 12.75 8.7364 11.325 8.7364C9.9 8.7364 9.75 9.86611 9.75 10.9205V15.2134H7.125V6.77824H9.6V7.90795H9.675C10.05 7.23013 10.95 6.47699 12.225 6.47699C14.925 6.47699 15.45 8.28452 15.45 10.6192V15.2887H15.375Z"
            fill="white" />
    </g>
    <defs>
        <clipPath id="clip0_17_410">
            <rect width="18" height="18" fill="white" />
        </clipPath>
    </defs>
</svg>