<svg width="20" height="20" viewBox="0 0 20 20" fill="none" xmlns="http://www.w3.org/2000/svg">
    <rect width="20" height="20" rx="3" fill="white" />
    <path
        d="M12.4748 15.7917L10.3415 10.7667C9.4915 12.425 8.55817 14.1667 7.75817 15.7917C7.74984 15.8 7.3665 15.7917 7.3665 15.7917C6.1415 12.9167 4.87484 10.0833 3.6415 7.23334C3.35817 6.53334 2.35817 5.41667 1.6665 5.41667V5.04167H5.88317V5.41667C5.38317 5.41667 4.53317 5.75001 4.74984 6.29167C5.34984 7.57501 7.44984 12.55 8.02484 13.8167C8.4165 13.0333 9.52484 10.9667 9.99984 10.0917C9.62484 9.35834 8.4415 6.60834 8.0915 5.92501C7.82484 5.47501 7.14984 5.41667 6.63317 5.41667C6.63317 5.29167 6.6415 5.20834 6.63317 5.05L10.3498 5.05834V5.39167C9.8415 5.41667 9.3665 5.59167 9.58317 6.075C10.0832 7.10834 10.3748 7.85 10.8332 8.80834C10.9748 8.525 11.7248 6.98334 12.0832 6.175C12.2998 5.63334 11.9748 5.41667 11.0748 5.41667C11.0832 5.31667 11.0832 5.14167 11.0832 5.05834C12.2415 5.05001 13.9832 5.05001 14.2915 5.04167V5.39167C13.6998 5.41667 13.0915 5.73334 12.7748 6.21667L11.2498 9.41667C11.3998 9.84167 12.8832 13.1333 13.0415 13.5L16.2498 6.14167C15.9998 5.54167 15.2832 5.41667 14.9998 5.41667V5.04167L18.3332 5.06667V5.41667C17.5998 5.41667 17.1415 5.83334 16.8748 6.45834C16.2082 7.95001 14.1665 12.7 12.8332 15.7917H12.4748Z"
        fill="#484848" />
</svg>